Genre:Comedy | Family
Language:English
 
http://www.imdb.com/title/tt1396218/

Source:EPID/FOOKKNOWS Thanks!

Format : MPEG-4
Format profile : Base Media
Codec ID : isom
File size : 1.18 GiB
Duration : 1h 27mn
Overall bit rate : 1 937 Kbps

Video
ID : 1
Format : AVC
Format/Info : Advanced Video Codec
Format profile : High@L4.1
Format settings, CABAC : Yes
Format settings, ReFrames : 3 frames
Codec ID : avc1
Codec ID/Info : Advanced Video Coding
Duration : 1h 27mn
Bit rate mode : Variable
Bit rate : 1 691 Kbps
Maximum bit rate : 8 856 Kbps
Width : 720 pixels
Height : 400 pixels
Display aspect ratio : 16:9
Frame rate mode : Constant
Frame rate : 25.000 fps
Color space : YUV
Chroma subsampling : 4:2:0
Bit depth : 8 bits
Scan type : Progressive
Bits/(Pixel*Frame) : 0.235
Stream size : 1.04 GiB (88%)
Writing library : x264

Audio
ID : 2
Format : AAC
Format/Info : Advanced Audio Codec
Format version : Version 4
Format profile : LC
Format settings, SBR : No
Codec ID : 40
Duration : 1h 27mn
Bit rate mode : Variable
Bit rate : 224 Kbps
Maximum bit rate : 259 Kbps
Channel(s) : 2 channels
Channel positions : Front: L R
Sampling rate : 44.1 KHz
Stream size : 140 MiB (12%)


Plot:
The life of a businessman begins to change after he inherits six penguins, and as he transforms his apartment into a winter wonderland, his professional side starts to unravel.
 
http://leetleech.org/images/35541819832728418873.png
 
http://leetleech.org/images/28539226513274263205.png
 
http://leetleech.org/images/28803748377573779972.png
 
http://leetleech.org/images/50852325376670479828.png